<mxfile host="app.diagrams.net" modified="2023-07-11T06:44:20.570Z" agent="Mozilla/5.0 (Windows NT 10.0; Win64; x64) AppleWebKit/537.36 (KHTML, like Gecko) Chrome/114.0.0.0 Safari/537.36" etag="s0solHaB_eqebDx_PkSY" version="21.6.1" type="github">
  <diagram name="페이지-1" id="e_c610Q5GPPkRLv2i7Lp">
    <mxGraphModel dx="2944" dy="928" grid="1" gridSize="10" guides="1" tooltips="1" connect="1" arrows="1" fold="1" page="1" pageScale="1" pageWidth="1169" pageHeight="827" math="0" shadow="0">
      <root>
        <mxCell id="0" />
        <mxCell id="1" parent="0" />
        <mxCell id="VP9Vu2d9VghAXa9p-_nq-1" value="Student" style="rounded=0;whiteSpace=wrap;html=1;fontSize=17;fontStyle=1;fillColor=#f8cecc;strokeColor=#b85450;" vertex="1" parent="1">
          <mxGeometry x="-320" y="330" width="80" height="60" as="geometry" />
        </mxCell>
        <mxCell id="VP9Vu2d9VghAXa9p-_nq-2" value="teacher" style="rounded=0;whiteSpace=wrap;html=1;fontStyle=1;fontSize=17;fillColor=#f8cecc;strokeColor=#b85450;" vertex="1" parent="1">
          <mxGeometry x="390" y="330" width="80" height="60" as="geometry" />
        </mxCell>
        <mxCell id="VP9Vu2d9VghAXa9p-_nq-3" value="sub_ject" style="rounded=0;whiteSpace=wrap;html=1;fontSize=17;fontStyle=1;fillColor=#f8cecc;strokeColor=#b85450;" vertex="1" parent="1">
          <mxGeometry x="40" y="330" width="80" height="60" as="geometry" />
        </mxCell>
        <mxCell id="VP9Vu2d9VghAXa9p-_nq-6" value="sub_code" style="rhombus;whiteSpace=wrap;html=1;fontStyle=1;fillColor=#b1ddf0;strokeColor=#10739e;" vertex="1" parent="1">
          <mxGeometry x="-152" y="330" width="103" height="60" as="geometry" />
        </mxCell>
        <mxCell id="VP9Vu2d9VghAXa9p-_nq-8" value="sub-code" style="rhombus;whiteSpace=wrap;html=1;fontStyle=1;fillColor=#b1ddf0;strokeColor=#10739e;" vertex="1" parent="1">
          <mxGeometry x="200" y="330" width="103" height="60" as="geometry" />
        </mxCell>
        <mxCell id="VP9Vu2d9VghAXa9p-_nq-10" value="" style="endArrow=none;html=1;rounded=0;exitX=0;exitY=0.5;exitDx=0;exitDy=0;entryX=1;entryY=0.5;entryDx=0;entryDy=0;" edge="1" parent="1" source="VP9Vu2d9VghAXa9p-_nq-6" target="VP9Vu2d9VghAXa9p-_nq-1">
          <mxGeometry relative="1" as="geometry">
            <mxPoint x="-250" y="330" as="sourcePoint" />
            <mxPoint x="-190" y="360" as="targetPoint" />
          </mxGeometry>
        </mxCell>
        <mxCell id="VP9Vu2d9VghAXa9p-_nq-11" value="1" style="resizable=0;html=1;whiteSpace=wrap;align=left;verticalAlign=bottom;" connectable="0" vertex="1" parent="VP9Vu2d9VghAXa9p-_nq-10">
          <mxGeometry x="-1" relative="1" as="geometry" />
        </mxCell>
        <mxCell id="VP9Vu2d9VghAXa9p-_nq-12" value="N" style="resizable=0;html=1;whiteSpace=wrap;align=right;verticalAlign=bottom;" connectable="0" vertex="1" parent="VP9Vu2d9VghAXa9p-_nq-10">
          <mxGeometry x="1" relative="1" as="geometry">
            <mxPoint x="20" as="offset" />
          </mxGeometry>
        </mxCell>
        <mxCell id="VP9Vu2d9VghAXa9p-_nq-15" value="" style="endArrow=none;html=1;rounded=0;entryX=0;entryY=0.5;entryDx=0;entryDy=0;exitX=1;exitY=0.5;exitDx=0;exitDy=0;" edge="1" parent="1" source="VP9Vu2d9VghAXa9p-_nq-6" target="VP9Vu2d9VghAXa9p-_nq-3">
          <mxGeometry relative="1" as="geometry">
            <mxPoint x="-110" y="300" as="sourcePoint" />
            <mxPoint x="50" y="300" as="targetPoint" />
          </mxGeometry>
        </mxCell>
        <mxCell id="VP9Vu2d9VghAXa9p-_nq-16" value="1" style="resizable=0;html=1;whiteSpace=wrap;align=left;verticalAlign=bottom;" connectable="0" vertex="1" parent="VP9Vu2d9VghAXa9p-_nq-15">
          <mxGeometry x="-1" relative="1" as="geometry" />
        </mxCell>
        <mxCell id="VP9Vu2d9VghAXa9p-_nq-17" value="1" style="resizable=0;html=1;whiteSpace=wrap;align=right;verticalAlign=bottom;" connectable="0" vertex="1" parent="VP9Vu2d9VghAXa9p-_nq-15">
          <mxGeometry x="1" relative="1" as="geometry" />
        </mxCell>
        <mxCell id="VP9Vu2d9VghAXa9p-_nq-18" value="" style="endArrow=none;html=1;rounded=0;entryX=0;entryY=0.5;entryDx=0;entryDy=0;exitX=1;exitY=0.5;exitDx=0;exitDy=0;" edge="1" parent="1" source="VP9Vu2d9VghAXa9p-_nq-3">
          <mxGeometry relative="1" as="geometry">
            <mxPoint x="130" y="360" as="sourcePoint" />
            <mxPoint x="200" y="359.8" as="targetPoint" />
          </mxGeometry>
        </mxCell>
        <mxCell id="VP9Vu2d9VghAXa9p-_nq-19" value="1" style="resizable=0;html=1;whiteSpace=wrap;align=left;verticalAlign=bottom;" connectable="0" vertex="1" parent="VP9Vu2d9VghAXa9p-_nq-18">
          <mxGeometry x="-1" relative="1" as="geometry" />
        </mxCell>
        <mxCell id="VP9Vu2d9VghAXa9p-_nq-20" value="1" style="resizable=0;html=1;whiteSpace=wrap;align=right;verticalAlign=bottom;" connectable="0" vertex="1" parent="VP9Vu2d9VghAXa9p-_nq-18">
          <mxGeometry x="1" relative="1" as="geometry" />
        </mxCell>
        <mxCell id="VP9Vu2d9VghAXa9p-_nq-21" value="" style="endArrow=none;html=1;rounded=0;exitX=0;exitY=0.5;exitDx=0;exitDy=0;entryX=1;entryY=0.5;entryDx=0;entryDy=0;" edge="1" parent="1" source="VP9Vu2d9VghAXa9p-_nq-2" target="VP9Vu2d9VghAXa9p-_nq-8">
          <mxGeometry relative="1" as="geometry">
            <mxPoint x="360" y="360" as="sourcePoint" />
            <mxPoint x="320" y="340" as="targetPoint" />
          </mxGeometry>
        </mxCell>
        <mxCell id="VP9Vu2d9VghAXa9p-_nq-22" value="1" style="resizable=0;html=1;whiteSpace=wrap;align=left;verticalAlign=bottom;" connectable="0" vertex="1" parent="VP9Vu2d9VghAXa9p-_nq-21">
          <mxGeometry x="-1" relative="1" as="geometry">
            <mxPoint x="-10" as="offset" />
          </mxGeometry>
        </mxCell>
        <mxCell id="VP9Vu2d9VghAXa9p-_nq-23" value="N" style="resizable=0;html=1;whiteSpace=wrap;align=right;verticalAlign=bottom;" connectable="0" vertex="1" parent="VP9Vu2d9VghAXa9p-_nq-21">
          <mxGeometry x="1" relative="1" as="geometry">
            <mxPoint x="7" as="offset" />
          </mxGeometry>
        </mxCell>
        <mxCell id="VP9Vu2d9VghAXa9p-_nq-24" value="sub_code" style="ellipse;whiteSpace=wrap;html=1;align=center;fontStyle=4;fillColor=#eeeeee;strokeColor=#36393d;fontColor=#ff0000;" vertex="1" parent="1">
          <mxGeometry x="-30" y="460" width="70" height="30" as="geometry" />
        </mxCell>
        <mxCell id="VP9Vu2d9VghAXa9p-_nq-25" value="s_id" style="ellipse;whiteSpace=wrap;html=1;align=center;fontStyle=4;fillColor=#eeeeee;strokeColor=#36393d;fontColor=#ff0000;" vertex="1" parent="1">
          <mxGeometry x="-400" y="230" width="70" height="30" as="geometry" />
        </mxCell>
        <mxCell id="VP9Vu2d9VghAXa9p-_nq-26" value="t_id" style="ellipse;whiteSpace=wrap;html=1;align=center;fontStyle=4;fillColor=#eeeeee;strokeColor=#36393d;fontColor=#ff0000;" vertex="1" parent="1">
          <mxGeometry x="560" y="180" width="70" height="30" as="geometry" />
        </mxCell>
        <mxCell id="VP9Vu2d9VghAXa9p-_nq-27" value="sub_t_name" style="ellipse;whiteSpace=wrap;html=1;align=center;fontStyle=0" vertex="1" parent="1">
          <mxGeometry x="45" y="510" width="70" height="30" as="geometry" />
        </mxCell>
        <mxCell id="VP9Vu2d9VghAXa9p-_nq-28" value="sub_name1" style="ellipse;whiteSpace=wrap;html=1;align=center;fontStyle=0" vertex="1" parent="1">
          <mxGeometry x="110" y="460" width="70" height="30" as="geometry" />
        </mxCell>
        <mxCell id="VP9Vu2d9VghAXa9p-_nq-29" value="" style="endArrow=none;html=1;rounded=0;entryX=0.5;entryY=1;entryDx=0;entryDy=0;exitX=0.5;exitY=0;exitDx=0;exitDy=0;" edge="1" parent="1" source="VP9Vu2d9VghAXa9p-_nq-27" target="VP9Vu2d9VghAXa9p-_nq-3">
          <mxGeometry relative="1" as="geometry">
            <mxPoint x="-20" y="370" as="sourcePoint" />
            <mxPoint x="140" y="370" as="targetPoint" />
          </mxGeometry>
        </mxCell>
        <mxCell id="VP9Vu2d9VghAXa9p-_nq-30" value="" style="endArrow=none;html=1;rounded=0;exitX=0.5;exitY=0;exitDx=0;exitDy=0;" edge="1" parent="1" source="VP9Vu2d9VghAXa9p-_nq-28">
          <mxGeometry relative="1" as="geometry">
            <mxPoint x="90" y="520" as="sourcePoint" />
            <mxPoint x="80" y="390" as="targetPoint" />
          </mxGeometry>
        </mxCell>
        <mxCell id="VP9Vu2d9VghAXa9p-_nq-31" value="" style="endArrow=none;html=1;rounded=0;exitX=0.5;exitY=0;exitDx=0;exitDy=0;entryX=0.5;entryY=1;entryDx=0;entryDy=0;" edge="1" parent="1" source="VP9Vu2d9VghAXa9p-_nq-24" target="VP9Vu2d9VghAXa9p-_nq-3">
          <mxGeometry relative="1" as="geometry">
            <mxPoint x="155" y="470" as="sourcePoint" />
            <mxPoint x="50" y="420" as="targetPoint" />
          </mxGeometry>
        </mxCell>
        <mxCell id="VP9Vu2d9VghAXa9p-_nq-33" value="t_name" style="ellipse;whiteSpace=wrap;html=1;align=center;fontStyle=0" vertex="1" parent="1">
          <mxGeometry x="630" y="200" width="70" height="30" as="geometry" />
        </mxCell>
        <mxCell id="VP9Vu2d9VghAXa9p-_nq-34" value="t_gender" style="ellipse;whiteSpace=wrap;html=1;align=center;fontStyle=0" vertex="1" parent="1">
          <mxGeometry x="690" y="240" width="70" height="30" as="geometry" />
        </mxCell>
        <mxCell id="VP9Vu2d9VghAXa9p-_nq-35" value="t_number" style="ellipse;whiteSpace=wrap;html=1;align=center;fontStyle=0" vertex="1" parent="1">
          <mxGeometry x="750" y="290" width="70" height="30" as="geometry" />
        </mxCell>
        <mxCell id="VP9Vu2d9VghAXa9p-_nq-36" value="t_subject1" style="ellipse;whiteSpace=wrap;html=1;align=center;fontStyle=0" vertex="1" parent="1">
          <mxGeometry x="790" y="345" width="70" height="30" as="geometry" />
        </mxCell>
        <mxCell id="VP9Vu2d9VghAXa9p-_nq-37" value="t_subject2" style="ellipse;whiteSpace=wrap;html=1;align=center;fontStyle=0" vertex="1" parent="1">
          <mxGeometry x="760" y="390" width="70" height="30" as="geometry" />
        </mxCell>
        <mxCell id="VP9Vu2d9VghAXa9p-_nq-38" value="t_subject3" style="ellipse;whiteSpace=wrap;html=1;align=center;fontStyle=0" vertex="1" parent="1">
          <mxGeometry x="710" y="430" width="70" height="30" as="geometry" />
        </mxCell>
        <mxCell id="VP9Vu2d9VghAXa9p-_nq-39" value="t_subject4" style="ellipse;whiteSpace=wrap;html=1;align=center;fontStyle=0" vertex="1" parent="1">
          <mxGeometry x="680" y="470" width="70" height="30" as="geometry" />
        </mxCell>
        <mxCell id="VP9Vu2d9VghAXa9p-_nq-40" value="t_subject5" style="ellipse;whiteSpace=wrap;html=1;align=center;fontStyle=0" vertex="1" parent="1">
          <mxGeometry x="640" y="510" width="70" height="30" as="geometry" />
        </mxCell>
        <mxCell id="VP9Vu2d9VghAXa9p-_nq-41" value="t_subject6" style="ellipse;whiteSpace=wrap;html=1;align=center;fontStyle=0" vertex="1" parent="1">
          <mxGeometry x="600" y="550" width="70" height="30" as="geometry" />
        </mxCell>
        <mxCell id="VP9Vu2d9VghAXa9p-_nq-42" value="t_subject7" style="ellipse;whiteSpace=wrap;html=1;align=center;fontStyle=0" vertex="1" parent="1">
          <mxGeometry x="530" y="580" width="70" height="30" as="geometry" />
        </mxCell>
        <mxCell id="VP9Vu2d9VghAXa9p-_nq-43" value="" style="endArrow=none;html=1;rounded=0;entryX=0.5;entryY=1;entryDx=0;entryDy=0;exitX=1;exitY=0.5;exitDx=0;exitDy=0;" edge="1" parent="1" source="VP9Vu2d9VghAXa9p-_nq-2" target="VP9Vu2d9VghAXa9p-_nq-26">
          <mxGeometry relative="1" as="geometry">
            <mxPoint x="370" y="450" as="sourcePoint" />
            <mxPoint x="530" y="450" as="targetPoint" />
          </mxGeometry>
        </mxCell>
        <mxCell id="VP9Vu2d9VghAXa9p-_nq-44" value="" style="endArrow=none;html=1;rounded=0;entryX=0.5;entryY=1;entryDx=0;entryDy=0;" edge="1" parent="1" target="VP9Vu2d9VghAXa9p-_nq-33">
          <mxGeometry relative="1" as="geometry">
            <mxPoint x="470" y="360" as="sourcePoint" />
            <mxPoint x="555" y="230" as="targetPoint" />
          </mxGeometry>
        </mxCell>
        <mxCell id="VP9Vu2d9VghAXa9p-_nq-48" value="" style="endArrow=none;html=1;rounded=0;entryX=0.5;entryY=1;entryDx=0;entryDy=0;" edge="1" parent="1" target="VP9Vu2d9VghAXa9p-_nq-34">
          <mxGeometry relative="1" as="geometry">
            <mxPoint x="470" y="360" as="sourcePoint" />
            <mxPoint x="615" y="250" as="targetPoint" />
          </mxGeometry>
        </mxCell>
        <mxCell id="VP9Vu2d9VghAXa9p-_nq-49" value="" style="endArrow=none;html=1;rounded=0;entryX=0;entryY=0.5;entryDx=0;entryDy=0;exitX=1;exitY=0.5;exitDx=0;exitDy=0;" edge="1" parent="1" source="VP9Vu2d9VghAXa9p-_nq-2" target="VP9Vu2d9VghAXa9p-_nq-35">
          <mxGeometry relative="1" as="geometry">
            <mxPoint x="435" y="420" as="sourcePoint" />
            <mxPoint x="600" y="340" as="targetPoint" />
          </mxGeometry>
        </mxCell>
        <mxCell id="VP9Vu2d9VghAXa9p-_nq-51" value="" style="endArrow=none;html=1;rounded=0;entryX=0;entryY=0.5;entryDx=0;entryDy=0;" edge="1" parent="1" target="VP9Vu2d9VghAXa9p-_nq-36">
          <mxGeometry relative="1" as="geometry">
            <mxPoint x="470" y="360" as="sourcePoint" />
            <mxPoint x="655" y="300" as="targetPoint" />
          </mxGeometry>
        </mxCell>
        <mxCell id="VP9Vu2d9VghAXa9p-_nq-52" value="" style="endArrow=none;html=1;rounded=0;entryX=0;entryY=0.5;entryDx=0;entryDy=0;exitX=1;exitY=0.5;exitDx=0;exitDy=0;" edge="1" parent="1" source="VP9Vu2d9VghAXa9p-_nq-2" target="VP9Vu2d9VghAXa9p-_nq-37">
          <mxGeometry relative="1" as="geometry">
            <mxPoint x="480" y="370" as="sourcePoint" />
            <mxPoint x="619" y="355" as="targetPoint" />
          </mxGeometry>
        </mxCell>
        <mxCell id="VP9Vu2d9VghAXa9p-_nq-53" value="" style="endArrow=none;html=1;rounded=0;entryX=0;entryY=0.5;entryDx=0;entryDy=0;exitX=1;exitY=0.5;exitDx=0;exitDy=0;" edge="1" parent="1" source="VP9Vu2d9VghAXa9p-_nq-2" target="VP9Vu2d9VghAXa9p-_nq-38">
          <mxGeometry relative="1" as="geometry">
            <mxPoint x="490" y="380" as="sourcePoint" />
            <mxPoint x="629" y="365" as="targetPoint" />
          </mxGeometry>
        </mxCell>
        <mxCell id="VP9Vu2d9VghAXa9p-_nq-54" value="" style="endArrow=none;html=1;rounded=0;entryX=0;entryY=0.5;entryDx=0;entryDy=0;exitX=1;exitY=0.5;exitDx=0;exitDy=0;" edge="1" parent="1" source="VP9Vu2d9VghAXa9p-_nq-2" target="VP9Vu2d9VghAXa9p-_nq-39">
          <mxGeometry relative="1" as="geometry">
            <mxPoint x="500" y="390" as="sourcePoint" />
            <mxPoint x="639" y="375" as="targetPoint" />
          </mxGeometry>
        </mxCell>
        <mxCell id="VP9Vu2d9VghAXa9p-_nq-56" value="" style="endArrow=none;html=1;rounded=0;entryX=0;entryY=0.5;entryDx=0;entryDy=0;" edge="1" parent="1" target="VP9Vu2d9VghAXa9p-_nq-40">
          <mxGeometry relative="1" as="geometry">
            <mxPoint x="470" y="360" as="sourcePoint" />
            <mxPoint x="619" y="475" as="targetPoint" />
          </mxGeometry>
        </mxCell>
        <mxCell id="VP9Vu2d9VghAXa9p-_nq-58" value="" style="endArrow=none;html=1;rounded=0;entryX=0;entryY=0.5;entryDx=0;entryDy=0;exitX=1;exitY=0.5;exitDx=0;exitDy=0;" edge="1" parent="1" source="VP9Vu2d9VghAXa9p-_nq-2" target="VP9Vu2d9VghAXa9p-_nq-41">
          <mxGeometry relative="1" as="geometry">
            <mxPoint x="400" y="450" as="sourcePoint" />
            <mxPoint x="600" y="515" as="targetPoint" />
          </mxGeometry>
        </mxCell>
        <mxCell id="VP9Vu2d9VghAXa9p-_nq-59" value="" style="endArrow=none;html=1;rounded=0;exitX=1;exitY=0.5;exitDx=0;exitDy=0;entryX=0;entryY=0.5;entryDx=0;entryDy=0;" edge="1" parent="1" source="VP9Vu2d9VghAXa9p-_nq-2" target="VP9Vu2d9VghAXa9p-_nq-42">
          <mxGeometry relative="1" as="geometry">
            <mxPoint x="480" y="370" as="sourcePoint" />
            <mxPoint x="430" y="540" as="targetPoint" />
          </mxGeometry>
        </mxCell>
        <mxCell id="VP9Vu2d9VghAXa9p-_nq-60" value="s_name" style="ellipse;whiteSpace=wrap;html=1;align=center;fontStyle=0" vertex="1" parent="1">
          <mxGeometry x="-470" y="260" width="70" height="30" as="geometry" />
        </mxCell>
        <mxCell id="VP9Vu2d9VghAXa9p-_nq-61" value="s_birthday" style="ellipse;whiteSpace=wrap;html=1;align=center;fontStyle=0" vertex="1" parent="1">
          <mxGeometry x="-500" y="300" width="70" height="30" as="geometry" />
        </mxCell>
        <mxCell id="VP9Vu2d9VghAXa9p-_nq-62" value="s_number" style="ellipse;whiteSpace=wrap;html=1;align=center;fontStyle=0" vertex="1" parent="1">
          <mxGeometry x="-510" y="345" width="70" height="30" as="geometry" />
        </mxCell>
        <mxCell id="VP9Vu2d9VghAXa9p-_nq-63" value="s_gender" style="ellipse;whiteSpace=wrap;html=1;align=center;fontStyle=0" vertex="1" parent="1">
          <mxGeometry x="-480" y="380" width="70" height="30" as="geometry" />
        </mxCell>
        <mxCell id="VP9Vu2d9VghAXa9p-_nq-64" value="s_subject" style="ellipse;whiteSpace=wrap;html=1;align=center;fontStyle=0" vertex="1" parent="1">
          <mxGeometry x="-440" y="430" width="70" height="30" as="geometry" />
        </mxCell>
        <mxCell id="VP9Vu2d9VghAXa9p-_nq-65" value="" style="endArrow=none;html=1;rounded=0;exitX=0;exitY=0.5;exitDx=0;exitDy=0;entryX=0.5;entryY=1;entryDx=0;entryDy=0;" edge="1" parent="1" source="VP9Vu2d9VghAXa9p-_nq-1" target="VP9Vu2d9VghAXa9p-_nq-25">
          <mxGeometry relative="1" as="geometry">
            <mxPoint x="-300" y="290" as="sourcePoint" />
            <mxPoint x="-225" y="220" as="targetPoint" />
          </mxGeometry>
        </mxCell>
        <mxCell id="VP9Vu2d9VghAXa9p-_nq-66" value="" style="endArrow=none;html=1;rounded=0;entryX=1;entryY=0.5;entryDx=0;entryDy=0;exitX=0;exitY=0.5;exitDx=0;exitDy=0;" edge="1" parent="1" source="VP9Vu2d9VghAXa9p-_nq-1" target="VP9Vu2d9VghAXa9p-_nq-60">
          <mxGeometry relative="1" as="geometry">
            <mxPoint x="-350" y="360" as="sourcePoint" />
            <mxPoint x="-355" y="270" as="targetPoint" />
          </mxGeometry>
        </mxCell>
        <mxCell id="VP9Vu2d9VghAXa9p-_nq-67" value="" style="endArrow=none;html=1;rounded=0;exitX=0;exitY=0.5;exitDx=0;exitDy=0;entryX=1;entryY=0.5;entryDx=0;entryDy=0;" edge="1" parent="1" source="VP9Vu2d9VghAXa9p-_nq-1" target="VP9Vu2d9VghAXa9p-_nq-61">
          <mxGeometry relative="1" as="geometry">
            <mxPoint x="-300" y="380" as="sourcePoint" />
            <mxPoint x="-345" y="280" as="targetPoint" />
          </mxGeometry>
        </mxCell>
        <mxCell id="VP9Vu2d9VghAXa9p-_nq-68" value="" style="endArrow=none;html=1;rounded=0;exitX=0;exitY=0.5;exitDx=0;exitDy=0;entryX=1;entryY=0.5;entryDx=0;entryDy=0;" edge="1" parent="1" source="VP9Vu2d9VghAXa9p-_nq-1" target="VP9Vu2d9VghAXa9p-_nq-62">
          <mxGeometry relative="1" as="geometry">
            <mxPoint x="-290" y="390" as="sourcePoint" />
            <mxPoint x="-335" y="290" as="targetPoint" />
          </mxGeometry>
        </mxCell>
        <mxCell id="VP9Vu2d9VghAXa9p-_nq-69" value="" style="endArrow=none;html=1;rounded=0;exitX=0;exitY=0.5;exitDx=0;exitDy=0;entryX=1;entryY=0.5;entryDx=0;entryDy=0;" edge="1" parent="1" source="VP9Vu2d9VghAXa9p-_nq-1" target="VP9Vu2d9VghAXa9p-_nq-63">
          <mxGeometry relative="1" as="geometry">
            <mxPoint x="-280" y="400" as="sourcePoint" />
            <mxPoint x="-325" y="300" as="targetPoint" />
          </mxGeometry>
        </mxCell>
        <mxCell id="VP9Vu2d9VghAXa9p-_nq-70" value="" style="endArrow=none;html=1;rounded=0;exitX=0;exitY=0.5;exitDx=0;exitDy=0;entryX=1;entryY=0.5;entryDx=0;entryDy=0;" edge="1" parent="1" source="VP9Vu2d9VghAXa9p-_nq-1" target="VP9Vu2d9VghAXa9p-_nq-64">
          <mxGeometry relative="1" as="geometry">
            <mxPoint x="-270" y="410" as="sourcePoint" />
            <mxPoint x="-315" y="310" as="targetPoint" />
          </mxGeometry>
        </mxCell>
      </root>
    </mxGraphModel>
  </diagram>
</mxfile>
